<svg xmlns="http://www.w3.org/2000/svg" width="512" height="512" viewBox="0 0 512 512">
  <g fill="none" fill-rule="evenodd">
    <circle cx="256" cy="256" r="256" fill="#2E282A"/>
    <path fill="#17BEBB" fill-rule="nonzero" d="M408.244505,256.02071 C408.244505,340.293792 340.071417,408.612549 255.978022,408.612549 C171.884627,408.612549 103.711538,340.293792 103.711538,256.02071 C103.711538,171.747628 171.884627,103.428871 255.978022,103.428871 C340.071417,103.428871 408.244505,171.747628 408.244505,256.02071 Z M352.50313,215.466886 C350.515206,214.305492 348.062024,214.305492 346.0741,215.466886 L263.95171,263.414633 C261.955327,264.584503 260.737196,266.729266 260.737196,269.052053 L260.737196,294.331435 C260.737196,296.654221 261.955327,298.798984 263.95171,299.960378 C265.922715,301.113294 268.342061,301.113294 270.321524,299.98581 C270.338443,299.977333 270.355361,299.968855 270.380739,299.960378 L297.399581,284.1756 L297.399581,342.787821 C297.399581,345.110608 298.617713,347.255371 300.605636,348.416765 C301.603828,348.993222 302.711989,349.289929 303.820151,349.289929 C304.928313,349.289929 306.036474,348.993222 307.034665,348.416765 L323.183372,338.98998 C325.171295,337.828586 326.397887,335.675346 326.397887,333.361036 L326.397887,267.237906 L352.50313,251.9872 C354.491053,250.825806 355.717644,248.681043 355.717644,246.358256 L355.717644,221.095829 C355.717644,218.773042 354.491053,216.628279 352.50313,215.466886 Z M263.95171,200.146665 L289.837012,215.261735 C289.97236,215.346508 290.056953,215.490622 290.056953,215.643214 L290.056953,234.412011 C290.056953,236.395704 292.171765,237.641871 293.880533,236.641547 C303.93858,230.783716 330.999718,215.007415 340.973172,209.208925 C342.656564,208.234032 342.631186,205.809518 340.947795,204.826148 L270.380739,163.626352 C268.392816,162.464958 265.939634,162.464958 263.95171,163.626352 C261.955327,164.787745 260.737196,166.932508 260.737196,169.255295 L260.737196,194.517721 C260.737196,196.840508 261.955327,198.985271 263.95171,200.146665 Z M249.394188,163.622961 C247.406265,162.461567 244.953083,162.461567 242.965159,163.622961 L172.364266,204.848189 C170.697794,205.823081 170.663957,208.213687 172.330429,209.188579 C182.295425,214.978592 209.534207,230.85662 219.541498,236.689019 C221.216429,237.663912 223.288945,236.443177 223.288945,234.493393 L223.288945,215.39398 L248.125301,200.889279 C250.899934,199.261633 252.608703,196.286091 252.608703,193.073186 L252.608703,169.251904 C252.608703,166.929117 251.382112,164.784354 249.394188,163.622961 Z M248.006025,263.417176 L165.875176,215.469429 C163.895712,214.308035 161.44253,214.308035 159.454606,215.469429 C157.466683,216.630822 156.240092,218.767108 156.240092,221.089895 L156.240092,246.360799 C156.240092,248.683586 157.466683,250.828349 159.454606,251.989742 L185.559848,267.231971 L185.559848,333.363579 C185.559848,335.677888 186.777981,337.822652 188.765904,338.984045 L204.92307,348.419307 C205.921261,348.995765 207.029423,349.292472 208.137585,349.292472 C209.245747,349.292472 210.353908,348.995765 211.352099,348.419307 C213.331564,347.257914 214.558154,345.113151 214.558154,342.790364 L214.558154,284.178143 L241.576997,299.962921 C241.602374,299.971399 241.619292,299.979875 241.636211,299.988353 C243.615675,301.115837 246.03502,301.10736 248.006025,299.962921 C249.993949,298.801528 251.22054,296.656765 251.22054,294.333978 L251.22054,269.046119 C251.22054,266.73181 249.993949,264.578569 248.006025,263.417176 Z"/>
  </g>
</svg>
